<?xml version="1.0" standalone="no"?>
<!DOCTYPE svg PUBLIC "-//W3C//DTD SVG 1.1//EN" "http://www.w3.org/Graphics/SVG/1.1/DTD/svg11.dtd" >
<svg>
<metadata>
Created by FontForge 20120731 at Sat Jun 29 16:43:35 2019
 By www
2011
</metadata>
<defs>
<font id="Cubano-Regular" horiz-adv-x="600" >
  <font-face 
    font-family="Cubano"
    font-weight="400"
    font-stretch="normal"
    units-per-em="1000"
    panose-1="0 0 5 0 0 0 0 0 0 0"
    ascent="800"
    descent="-200"
    x-height="700"
    cap-height="700"
    bbox="-38.8782 -200 868 990.262"
    underline-thickness="50"
    underline-position="-50"
    stemh="172"
    stemv="172"
    unicode-range="U+0020-2260"
  />
<missing-glyph horiz-adv-x="250" 
 />
    <glyph glyph-name=".notdef" horiz-adv-x="250" 
 />
    <glyph glyph-name="A" unicode="A" horiz-adv-x="580" 
d="M535 34v424c0 126 -20 260 -245 260s-245 -134 -245 -260v-424c0 -22 11 -34 30 -34h112c20 0 30 10 30 30v87c0 20 11 30 30 30h86c20 0 30 -10 30 -30v-87c0 -20 11 -30 30 -30h112c20 0 30 12 30 34zM363 458v-108c0 -20 -10 -30 -30 -31h-86c-19 0 -30 11 -30 30v109
c0 48 7 72 73 72s73 -24 73 -72z" />
    <glyph glyph-name="Aacute" unicode="&#xc1;" horiz-adv-x="580" 
d="M293 832l115 92c22 18 16 37 -13 37h-105c-16 0 -26 -5 -37 -16l-80 -89c-17 -20 -10 -37 17 -37h66c15 0 26 4 37 13zM535 34v424c0 126 -20 260 -245 260s-245 -134 -245 -260v-424c0 -22 11 -34 30 -34h112c20 0 30 10 30 30v87c0 20 11 30 30 30h86
c20 0 30 -10 30 -30v-87c0 -20 11 -30 30 -30h112c20 0 30 12 30 34zM363 458v-108c0 -20 -10 -30 -30 -31h-86c-19 0 -30 11 -30 30v109c0 48 7 72 73 72s73 -24 73 -72z" />
    <glyph glyph-name="Acircumflex" unicode="&#xc2;" horiz-adv-x="580" 
d="M313 979l143 -144c15 -14 15 -28 0 -44l-28 -27c-13 -13 -28 -14 -42 0l-89 88c-4 4 -7 5 -12 0l-86 -86c-12 -13 -28 -13 -41 0l-28 27c-15 16 -14 30 0 44l141 142c14 14 26 16 42 0zM535 34v424c0 126 -20 260 -245 260s-245 -134 -245 -260v-424c0 -22 11 -34 30 -34
h112c20 0 30 10 30 30v87c0 20 11 30 30 30h86c20 0 30 -10 30 -30v-87c0 -20 11 -30 30 -30h112c20 0 30 12 30 34zM363 458v-108c0 -20 -10 -30 -30 -31h-86c-19 0 -30 11 -30 30v109c0 48 7 72 73 72s73 -24 73 -72z" />
    <glyph glyph-name="Adieresis" unicode="&#xc4;" horiz-adv-x="580" 
d="M188 783c-31 0 -57 26 -57 57s26 57 57 57s57 -26 57 -57s-26 -57 -57 -57zM398 783c-31 0 -57 26 -57 57s26 57 57 57s57 -26 57 -57s-26 -57 -57 -57zM535 34v424c0 126 -20 260 -245 260s-245 -134 -245 -260v-424c0 -22 11 -34 30 -34h112c20 0 30 10 30 30v87
c0 20 11 30 30 30h86c20 0 30 -10 30 -30v-87c0 -20 11 -30 30 -30h112c20 0 30 12 30 34zM363 458v-108c0 -20 -10 -30 -30 -31h-86c-19 0 -30 11 -30 30v109c0 48 7 72 73 72s73 -24 73 -72z" />
    <glyph glyph-name="Agrave" unicode="&#xc0;" horiz-adv-x="580" 
d="M296 961h-105c-29 0 -35 -19 -13 -37l115 -92c11 -9 22 -13 37 -13h66c27 0 34 17 17 37l-80 89c-11 11 -21 16 -37 16zM535 34v424c0 126 -20 260 -245 260s-245 -134 -245 -260v-424c0 -22 11 -34 30 -34h112c20 0 30 10 30 30v87c0 20 11 30 30 30h86
c20 0 30 -10 30 -30v-87c0 -20 11 -30 30 -30h112c20 0 30 12 30 34zM363 458v-108c0 -20 -10 -30 -30 -31h-86c-19 0 -30 11 -30 30v109c0 48 7 72 73 72s73 -24 73 -72z" />
    <glyph glyph-name="Atilde" unicode="&#xc3;" horiz-adv-x="580" 
d="M155 879l-46 -15c-15 -5 -20 -15 -13 -29c77 -156 265 21 306 -54c5 -9 19 -12 29 -9l46 15c13 5 20 15 13 29c-77 156 -265 -21 -306 54c-4 8 -19 14 -29 9zM535 34v424c0 126 -20 260 -245 260s-245 -134 -245 -260v-424c0 -22 11 -34 30 -34h112c20 0 30 10 30 30v87
c0 20 11 30 30 30h86c20 0 30 -10 30 -30v-87c0 -20 11 -30 30 -30h112c20 0 30 12 30 34zM363 458v-108c0 -20 -10 -30 -30 -31h-86c-19 0 -30 11 -30 30v109c0 48 7 72 73 72s73 -24 73 -72z" />
    <glyph glyph-name="B" unicode="B" horiz-adv-x="586" 
d="M80 700h210c188 0 260 -76 260 -240c0 -34 -10 -100 -51 -145c41 -19 71 -69 71 -131c0 -124 -55 -184 -243 -184h-247c-19 0 -30 11 -30 30v639c0 20 10 30 30 31zM252 392h54c48 0 72 6 72 68s-24 68 -72 68h-54c-19 0 -30 -10 -30 -30v-76c0 -20 11 -30 30 -30z
M251 142h63c48 0 72 5 72 52s-22 54 -70 54h-65c-19 0 -30 -10 -30 -30v-46c0 -20 11 -30 30 -30z" />
    <glyph glyph-name="C" unicode="C" horiz-adv-x="560" 
d="M40 225v250c0 66 14 243 251 243c213 0 246 -143 250 -220c1 -14 -8 -25 -22 -28l-111 -25c-21 -4 -37 10 -40 31c-5 44 -23 70 -77 70c-74 0 -79 -47 -79 -124v-144c0 -77 5 -124 79 -124c55 0 70 26 76 72c3 21 19 34 39 29l113 -25c14 -3 23 -14 22 -29
c-4 -76 -37 -219 -250 -219c-237 0 -251 177 -251 243z" />
    <glyph glyph-name="D" unicode="D" horiz-adv-x="593" 
d="M80 700h223c188 0 250 -76 250 -240v-219c0 -164 -62 -241 -250 -241h-223c-19 0 -30 11 -30 30v639c0 20 10 30 30 31zM252 172h54c48 0 72 8 72 68v220c0 62 -24 68 -72 68h-54c-19 0 -30 -10 -30 -30v-296c0 -19 11 -30 30 -30z" />
    <glyph glyph-name="E" unicode="E" horiz-adv-x="557" 
d="M500 700h-420c-19 0 -30 -10 -30 -30v-640c0 -19 11 -30 30 -30h420c20 0 30 10 30 30v112c0 20 -10 30 -30 30h-242c-19 0 -30 11 -30 30v32c0 20 11 30 30 30h155c20 0 30 11 30 30v112c0 20 -10 30 -30 30h-155c-19 0 -30 11 -30 30v32c0 20 11 30 30 30h242
c20 0 30 11 30 30v112c0 20 -10 30 -30 30z" />
    <glyph glyph-name="Eacute" unicode="&#xc9;" horiz-adv-x="557" 
d="M300 832l115 92c22 18 16 37 -13 37h-105c-16 0 -26 -5 -37 -16l-80 -89c-17 -20 -10 -37 17 -37h66c15 0 26 4 37 13zM500 700h-420c-19 0 -30 -10 -30 -30v-640c0 -19 11 -30 30 -30h420c20 0 30 10 30 30v112c0 20 -10 30 -30 30h-242c-19 0 -30 11 -30 30v32
c0 20 11 30 30 30h155c20 0 30 11 30 30v112c0 20 -10 30 -30 30h-155c-19 0 -30 11 -30 30v32c0 20 11 30 30 30h242c20 0 30 11 30 30v112c0 20 -10 30 -30 30z" />
    <glyph glyph-name="Ecircumflex" unicode="&#xca;" horiz-adv-x="557" 
d="M320 979l143 -144c15 -14 15 -28 0 -44l-28 -27c-13 -13 -28 -14 -42 0l-89 88c-4 4 -7 5 -12 0l-86 -86c-12 -13 -28 -13 -41 0l-28 27c-15 16 -14 30 0 44l141 142c14 14 26 16 42 0zM500 700h-420c-19 0 -30 -10 -30 -30v-640c0 -19 11 -30 30 -30h420
c20 0 30 10 30 30v112c0 20 -10 30 -30 30h-242c-19 0 -30 11 -30 30v32c0 20 11 30 30 30h155c20 0 30 11 30 30v112c0 20 -10 30 -30 30h-155c-19 0 -30 11 -30 30v32c0 20 11 30 30 30h242c20 0 30 11 30 30v112c0 20 -10 30 -30 30z" />
    <glyph glyph-name="Edieresis" unicode="&#xcb;" horiz-adv-x="557" 
d="M195 783c-31 0 -57 26 -57 57s26 57 57 57s57 -26 57 -57s-26 -57 -57 -57zM405 783c-31 0 -57 26 -57 57s26 57 57 57s57 -26 57 -57s-26 -57 -57 -57zM500 700h-420c-19 0 -30 -10 -30 -30v-640c0 -19 11 -30 30 -30h420c20 0 30 10 30 30v112c0 20 -10 30 -30 30h-242
c-19 0 -30 11 -30 30v32c0 20 11 30 30 30h155c20 0 30 11 30 30v112c0 20 -10 30 -30 30h-155c-19 0 -30 11 -30 30v32c0 20 11 30 30 30h242c20 0 30 11 30 30v112c0 20 -10 30 -30 30z" />
    <glyph glyph-name="Egrave" unicode="&#xc8;" horiz-adv-x="557" 
d="M303 961h-105c-29 0 -35 -19 -13 -37l115 -92c11 -9 22 -13 37 -13h66c27 0 34 17 17 37l-80 89c-11 11 -21 16 -37 16zM500 700h-420c-19 0 -30 -10 -30 -30v-640c0 -19 11 -30 30 -30h420c20 0 30 10 30 30v112c0 20 -10 30 -30 30h-242c-19 0 -30 11 -30 30v32
c0 20 11 30 30 30h155c20 0 30 11 30 30v112c0 20 -10 30 -30 30h-155c-19 0 -30 11 -30 30v32c0 20 11 30 30 30h242c20 0 30 11 30 30v112c0 20 -10 30 -30 30z" />
    <glyph glyph-name="F" unicode="F" horiz-adv-x="550" 
d="M510 700h-430c-19 0 -30 -10 -30 -30v-640c0 -19 11 -30 30 -30h118c20 0 30 11 30 30v204c0 20 11 30 30 30h165c20 0 30 11 30 30v112c0 20 -10 30 -30 30h-165c-19 0 -30 11 -30 30v32c0 20 11 30 30 30h252c20 0 30 11 30 30v112c0 20 -10 30 -30 30z" />
    <glyph glyph-name="G" unicode="G" horiz-adv-x="580" 
d="M40 225v250c0 66 14 243 251 243c210 0 245 -138 250 -216c1 -18 -8 -29 -26 -33l-113 -25c-20 -4 -31 5 -33 26c-4 48 -21 76 -78 76c-74 0 -79 -47 -79 -124v-144c0 -77 5 -124 79 -124s79 47 79 96h-58c-19 0 -30 11 -30 30v80c0 20 11 30 30 30h200
c20 0 30 -10 30 -30v-135c0 -66 -14 -243 -251 -243s-251 177 -251 243z" />
    <glyph glyph-name="H" unicode="H" 
d="M192 700h-112c-20 0 -30 -10 -30 -30v-640c0 -19 11 -30 30 -30h112c20 0 30 11 30 30v158c0 20 11 30 30 30h96c20 0 30 -10 30 -30v-158c0 -19 11 -30 30 -30h112c20 0 30 11 30 30v640c0 20 -10 30 -30 30h-112c-19 0 -30 -11 -30 -30v-250c0 -19 -10 -30 -30 -30h-96
c-19 0 -30 11 -30 30v250c0 19 -11 30 -30 30z" />
    <glyph glyph-name="I" unicode="I" horiz-adv-x="270" 
d="M190 700h-110c-19 0 -30 -10 -30 -30v-640c0 -19 11 -30 30 -30h110c20 0 30 11 30 30v640c0 20 -10 30 -30 30z" />
    <glyph glyph-name="Iacute" unicode="&#xcd;" horiz-adv-x="270" 
d="M135 832l115 92c22 18 16 37 -13 37h-105c-16 0 -26 -5 -37 -16l-80 -89c-17 -20 -10 -37 17 -37h66c15 0 26 4 37 13zM190 700h-110c-19 0 -30 -10 -30 -30v-640c0 -19 11 -30 30 -30h110c20 0 30 11 30 30v640c0 20 -10 30 -30 30z" />
    <glyph glyph-name="Icircumflex" unicode="&#xce;" horiz-adv-x="270" 
d="M155 979l143 -144c15 -14 15 -28 0 -44l-28 -27c-13 -13 -28 -14 -42 0l-89 88c-4 4 -7 5 -12 0l-86 -86c-12 -13 -28 -13 -41 0l-28 27c-15 16 -14 30 0 44l141 142c14 14 26 16 42 0zM190 700h-110c-19 0 -30 -10 -30 -30v-640c0 -19 11 -30 30 -30h110
c20 0 30 11 30 30v640c0 20 -10 30 -30 30z" />
    <glyph glyph-name="Idieresis" unicode="&#xcf;" horiz-adv-x="270" 
d="M30 783c-31 0 -57 26 -57 57s26 57 57 57s57 -26 57 -57s-26 -57 -57 -57zM240 783c-31 0 -57 26 -57 57s26 57 57 57s57 -26 57 -57s-26 -57 -57 -57zM190 700h-110c-19 0 -30 -10 -30 -30v-640c0 -19 11 -30 30 -30h110c20 0 30 11 30 30v640c0 20 -10 30 -30 30z" />
    <glyph glyph-name="Igrave" unicode="&#xcc;" horiz-adv-x="270" 
d="M138 961h-105c-29 0 -35 -19 -13 -37l115 -92c11 -9 22 -13 37 -13h66c27 0 34 17 17 37l-80 89c-11 11 -21 16 -37 16zM190 700h-110c-19 0 -30 -10 -30 -30v-640c0 -19 11 -30 30 -30h110c20 0 30 11 30 30v640c0 20 -10 30 -30 30z" />
    <glyph glyph-name="J" unicode="J" horiz-adv-x="556" 
d="M370 700h110c18 0 31 -13 31 -31v-444c0 -66 -14 -243 -251 -243c-213 0 -246 143 -250 220c-1 14 8 25 22 28l111 25c21 4 37 -10 40 -31c5 -44 23 -70 77 -70c74 0 79 47 79 124v391c0 18 13 31 31 31z" />
    <glyph glyph-name="K" unicode="K" horiz-adv-x="623" 
d="M394 371l218 -335c14 -20 5 -36 -19 -36h-150c-16 0 -27 6 -36 20l-124 190c-4 6 -10 6 -14 0l-41 -56c-3 -4 -4 -8 -4 -13v-111c0 -19 -10 -30 -30 -30h-114c-19 0 -30 11 -30 30v640c0 20 11 30 30 30h114c20 0 30 -10 30 -30v-201c0 -10 7 -12 12 -4l157 216
c9 13 20 19 36 19h148c25 0 33 -16 19 -37l-202 -278c-3 -5 -4 -9 0 -14z" />
    <glyph glyph-name="L" unicode="L" horiz-adv-x="517" 
d="M192 700h-112c-19 0 -30 -10 -30 -30v-640c0 -19 11 -30 30 -30h395c20 0 30 10 30 30v112c0 20 -10 30 -30 30h-223c-19 0 -30 11 -30 30v468c0 20 -10 30 -30 30z" />
    <glyph glyph-name="M" unicode="M" horiz-adv-x="792" 
d="M287 700h-207c-20 0 -30 -10 -30 -30v-640c0 -19 10 -30 30 -30h112c20 0 30 11 30 30v394c0 7 9 8 11 1l97 -399c4 -17 15 -26 33 -26h66c18 0 29 9 33 26l97 399c2 7 11 6 11 -1v-394c0 -19 11 -30 30 -30h112c20 0 30 11 30 30v640c0 20 -10 30 -30 30h-207
c-18 0 -28 -10 -32 -27l-71 -291c-2 -10 -10 -10 -12 0l-71 291c-4 17 -14 27 -32 27z" />
    <glyph glyph-name="N" unicode="N" horiz-adv-x="632" 
d="M227 700h-147c-19 0 -30 -10 -30 -30v-640c0 -19 11 -30 30 -30h112c20 0 30 11 30 30v323c0 10 8 12 12 3l136 -333c7 -16 18 -23 35 -23h147c20 0 30 11 30 30v640c0 20 -10 30 -30 30h-112c-19 0 -30 -10 -30 -30v-323c0 -10 -8 -12 -12 -3l-136 333
c-7 16 -18 23 -35 23z" />
    <glyph glyph-name="Ntilde" unicode="&#xd1;" horiz-adv-x="632" 
d="M188 879l-46 -15c-15 -5 -20 -15 -13 -29c77 -156 265 21 306 -54c5 -9 19 -12 29 -9l46 15c13 5 20 15 13 29c-77 156 -265 -21 -306 54c-4 8 -19 14 -29 9zM227 700h-147c-19 0 -30 -10 -30 -30v-640c0 -19 11 -30 30 -30h112c20 0 30 11 30 30v323c0 10 8 12 12 3
l136 -333c7 -16 18 -23 35 -23h147c20 0 30 11 30 30v640c0 20 -10 30 -30 30h-112c-19 0 -30 -10 -30 -30v-323c0 -10 -8 -12 -12 -3l-136 333c-7 16 -18 23 -35 23z" />
    <glyph glyph-name="O" unicode="O" horiz-adv-x="582" 
d="M542 475v-250c0 -66 -14 -243 -251 -243s-251 177 -251 243v250c0 66 14 243 251 243s251 -177 251 -243zM370 278v144c0 77 -5 124 -79 124s-79 -47 -79 -124v-144c0 -77 5 -124 79 -124s79 47 79 124z" />
    <glyph glyph-name="Oacute" unicode="&#xd3;" horiz-adv-x="582" 
d="M291 832l115 92c22 18 16 37 -13 37h-105c-16 0 -26 -5 -37 -16l-80 -89c-17 -20 -10 -37 17 -37h66c15 0 26 4 37 13zM542 475v-250c0 -66 -14 -243 -251 -243s-251 177 -251 243v250c0 66 14 243 251 243s251 -177 251 -243zM370 278v144c0 77 -5 124 -79 124
s-79 -47 -79 -124v-144c0 -77 5 -124 79 -124s79 47 79 124z" />
    <glyph glyph-name="Ocircumflex" unicode="&#xd4;" horiz-adv-x="582" 
d="M311 979l143 -144c15 -14 15 -28 0 -44l-28 -27c-13 -13 -28 -14 -42 0l-89 88c-4 4 -7 5 -12 0l-86 -86c-12 -13 -28 -13 -41 0l-28 27c-15 16 -14 30 0 44l141 142c14 14 26 16 42 0zM542 475v-250c0 -66 -14 -243 -251 -243s-251 177 -251 243v250
c0 66 14 243 251 243s251 -177 251 -243zM370 278v144c0 77 -5 124 -79 124s-79 -47 -79 -124v-144c0 -77 5 -124 79 -124s79 47 79 124z" />
    <glyph glyph-name="Odieresis" unicode="&#xd6;" horiz-adv-x="582" 
d="M186 783c-31 0 -57 26 -57 57s26 57 57 57s57 -26 57 -57s-26 -57 -57 -57zM396 783c-31 0 -57 26 -57 57s26 57 57 57s57 -26 57 -57s-26 -57 -57 -57zM542 475v-250c0 -66 -14 -243 -251 -243s-251 177 -251 243v250c0 66 14 243 251 243s251 -177 251 -243zM370 278
v144c0 77 -5 124 -79 124s-79 -47 -79 -124v-144c0 -77 5 -124 79 -124s79 47 79 124z" />
    <glyph glyph-name="Ograve" unicode="&#xd2;" horiz-adv-x="582" 
d="M294 961h-105c-29 0 -35 -19 -13 -37l115 -92c11 -9 22 -13 37 -13h66c27 0 34 17 17 37l-80 89c-11 11 -21 16 -37 16zM542 475v-250c0 -66 -14 -243 -251 -243s-251 177 -251 243v250c0 66 14 243 251 243s251 -177 251 -243zM370 278v144c0 77 -5 124 -79 124
s-79 -47 -79 -124v-144c0 -77 5 -124 79 -124s79 47 79 124z" />
    <glyph glyph-name="Oslash" unicode="&#xd8;" horiz-adv-x="602" 
d="M496 729l35 -19c17 -10 21 -24 12 -40l-33 -57c29 -50 32 -107 32 -138v-250c0 -66 -14 -243 -251 -243c-55 0 -98 9 -131 25l-17 -29c-8 -13 -22 -18 -40 -6l-33 20c-18 8 -22 22 -12 38l24 41c-38 54 -42 119 -42 154v250c0 66 14 243 251 243c63 0 110 -12 145 -32
l21 36c7 14 23 18 39 7zM212 422v-125l134 233c-12 10 -29 16 -55 16c-74 0 -79 -47 -79 -124zM370 278v93l-121 -209c11 -5 24 -8 42 -8c74 0 79 47 79 124z" />
    <glyph glyph-name="Otilde" unicode="&#xd5;" horiz-adv-x="582" 
d="M153 879l-46 -15c-15 -5 -20 -15 -13 -29c77 -156 265 21 306 -54c5 -9 19 -12 29 -9l46 15c13 5 20 15 13 29c-77 156 -265 -21 -306 54c-4 8 -19 14 -29 9zM542 475v-250c0 -66 -14 -243 -251 -243s-251 177 -251 243v250c0 66 14 243 251 243s251 -177 251 -243z
M370 278v144c0 77 -5 124 -79 124s-79 -47 -79 -124v-144c0 -77 5 -124 79 -124s79 47 79 124z" />
    <glyph glyph-name="P" unicode="P" horiz-adv-x="562" 
d="M80 700h220c178 0 250 -76 250 -240s-72 -240 -250 -240h-48c-19 0 -30 -10 -30 -30v-160c0 -20 -10 -30 -30 -30h-112c-19 0 -30 11 -30 30v639c0 20 10 30 30 31zM252 392h54c48 0 72 6 72 68s-24 68 -72 68h-54c-19 0 -30 -10 -30 -30v-76c0 -19 11 -30 30 -30z" />
    <glyph glyph-name="Q" unicode="Q" horiz-adv-x="585" 
d="M577 35l-81 -77c-14 -14 -28 -14 -42 0l-38 38c-4 4 -8 5 -14 3c-30 -11 -67 -17 -111 -17c-237 0 -251 177 -251 243v250c0 66 14 243 251 243s251 -177 251 -243v-250c0 -20 -2 -52 -11 -85c-1 -6 0 -10 3 -14l45 -48c13 -14 12 -29 -2 -43zM212 422v-144
c0 -77 5 -124 79 -124s79 47 79 124v144c0 77 -5 124 -79 124s-79 -47 -79 -124z" />
    <glyph glyph-name="R" unicode="R" horiz-adv-x="593" 
d="M471 251l106 -197c14 -26 -2 -54 -33 -54h-114c-10 0 -19 5 -23 14l-104 201c-2 3 -5 5 -8 5h-40c-18 0 -31 -13 -31 -31v-158c0 -18 -13 -31 -31 -31h-112c-18 0 -31 13 -31 31v638c0 18 13 31 31 31h219c178 0 250 -76 250 -240c0 -93 -23 -158 -76 -196
c-4 -3 -5 -8 -3 -13zM306 528h-51c-18 0 -31 -13 -31 -31v-74c0 -18 13 -31 31 -31h51c48 0 72 6 72 68s-24 68 -72 68z" />
    <glyph glyph-name="S" unicode="S" horiz-adv-x="572" 
d="M513 477l-114 -25c-20 -4 -30 5 -33 25c-7 41 -40 67 -87 67c-39 0 -63 -23 -59 -46c14 -78 330 -76 330 -306c0 -30 -34 -207 -271 -207c-210 0 -255 138 -260 216c-1 18 8 29 26 33l113 25c20 4 31 -5 33 -26c4 -48 41 -76 88 -76c49 0 85 29 79 56
c-19 85 -320 66 -320 296c-1 30 17 207 241 207c206 0 254 -134 260 -206c1 -18 -8 -29 -26 -33z" />
    <glyph glyph-name="T" unicode="T" horiz-adv-x="592" 
d="M210 498v-468c0 -19 11 -30 30 -30h112c20 0 30 11 30 30v468c0 20 11 30 30 30h140c20 0 30 11 30 30v112c0 20 -10 30 -30 30h-512c-19 0 -30 -10 -30 -30v-112c0 -19 11 -30 30 -30h140c20 0 30 -10 30 -30z" />
    <glyph glyph-name="U" unicode="U" horiz-adv-x="590" 
d="M74 700h112c20 0 30 -10 30 -30v-392c0 -77 5 -124 79 -124s79 47 79 124v392c0 20 11 30 30 30h112c20 0 30 -10 30 -30v-445c0 -66 -14 -243 -251 -243s-251 177 -251 243v445c0 20 11 30 30 30z" />
    <glyph glyph-name="Uacute" unicode="&#xda;" horiz-adv-x="590" 
d="M295 832l115 92c22 18 16 37 -13 37h-105c-16 0 -26 -5 -37 -16l-80 -89c-17 -20 -10 -37 17 -37h66c15 0 26 4 37 13zM74 700h112c20 0 30 -10 30 -30v-392c0 -77 5 -124 79 -124s79 47 79 124v392c0 20 11 30 30 30h112c20 0 30 -10 30 -30v-445
c0 -66 -14 -243 -251 -243s-251 177 -251 243v445c0 20 11 30 30 30z" />
    <glyph glyph-name="Ucircumflex" unicode="&#xdb;" horiz-adv-x="590" 
d="M315 979l143 -144c15 -14 15 -28 0 -44l-28 -27c-13 -13 -28 -14 -42 0l-89 88c-4 4 -7 5 -12 0l-86 -86c-12 -13 -28 -13 -41 0l-28 27c-15 16 -14 30 0 44l141 142c14 14 26 16 42 0zM74 700h112c20 0 30 -10 30 -30v-392c0 -77 5 -124 79 -124s79 47 79 124v392
c0 20 11 30 30 30h112c20 0 30 -10 30 -30v-445c0 -66 -14 -243 -251 -243s-251 177 -251 243v445c0 20 11 30 30 30z" />
    <glyph glyph-name="Udieresis" unicode="&#xdc;" horiz-adv-x="590" 
d="M190 783c-31 0 -57 26 -57 57s26 57 57 57s57 -26 57 -57s-26 -57 -57 -57zM400 783c-31 0 -57 26 -57 57s26 57 57 57s57 -26 57 -57s-26 -57 -57 -57zM74 700h112c20 0 30 -10 30 -30v-392c0 -77 5 -124 79 -124s79 47 79 124v392c0 20 11 30 30 30h112
c20 0 30 -10 30 -30v-445c0 -66 -14 -243 -251 -243s-251 177 -251 243v445c0 20 11 30 30 30z" />
    <glyph glyph-name="Ugrave" unicode="&#xd9;" horiz-adv-x="590" 
d="M298 961h-105c-29 0 -35 -19 -13 -37l115 -92c11 -9 22 -13 37 -13h66c27 0 34 17 17 37l-80 89c-11 11 -21 16 -37 16zM74 700h112c20 0 30 -10 30 -30v-392c0 -77 5 -124 79 -124s79 47 79 124v392c0 20 11 30 30 30h112c20 0 30 -10 30 -30v-445
c0 -66 -14 -243 -251 -243s-251 177 -251 243v445c0 20 11 30 30 30z" />
    <glyph glyph-name="V" unicode="V" horiz-adv-x="580" 
d="M163 700h-119c-21 0 -31 -12 -26 -33l146 -641c4 -17 15 -26 33 -26h186c18 0 29 9 33 26l146 641c5 21 -5 33 -26 33h-119c-18 0 -29 -9 -33 -26l-88 -384c-2 -9 -10 -9 -12 0l-88 384c-4 17 -15 26 -33 26z" />
    <glyph glyph-name="W" unicode="W" horiz-adv-x="810" 
d="M14 667l123 -641c3 -17 15 -26 33 -26h141c18 0 29 9 33 26l55 246c2 10 10 10 12 0l55 -246c4 -17 15 -26 33 -26h141c18 0 30 9 33 26l123 641c4 21 -6 33 -27 33h-119c-18 0 -31 -9 -33 -26l-57 -417c-2 -10 -10 -10 -12 0l-67 417c-3 17 -15 26 -33 26h-86
c-18 0 -30 -9 -33 -26l-67 -417c-2 -10 -10 -10 -12 0l-57 417c-2 17 -15 26 -33 26h-119c-21 0 -31 -12 -27 -33z" />
    <glyph glyph-name="X" unicode="X" 
d="M402 356l189 -320c12 -21 3 -36 -21 -36h-124c-17 0 -28 6 -36 20l-99 168c-4 7 -9 7 -13 0l-96 -167c-8 -15 -19 -21 -36 -21h-136c-24 0 -33 15 -21 36l192 325c3 5 3 9 0 14l-170 289c-12 21 -3 36 21 36h124c17 0 28 -6 36 -20l81 -139c4 -7 10 -7 14 0l82 139
c8 14 19 20 36 20h125c23 0 32 -15 20 -36l-168 -294c-3 -5 -3 -9 0 -14z" />
    <glyph glyph-name="Y" unicode="Y" horiz-adv-x="601" 
d="M186 700h-144c-23 0 -33 -14 -23 -35l180 -400c2 -4 2 -8 2 -12v-223c0 -19 11 -30 30 -30h140c20 0 30 11 30 30v223c0 4 0 8 2 12l179 400c10 21 0 35 -23 35h-143c-17 0 -28 -7 -34 -23l-74 -186c-4 -9 -10 -9 -14 0l-74 186c-6 16 -17 23 -34 23z" />
    <glyph glyph-name="Z" unicode="Z" horiz-adv-x="590" 
d="M313 172h211c20 0 30 -10 30 -30v-112c0 -19 -10 -30 -30 -30h-497c-24 0 -33 15 -21 36l273 480c4 7 1 12 -7 12h-191c-19 0 -30 11 -30 30v112c0 20 11 30 30 30h482c24 0 33 -15 21 -36l-278 -480c-4 -7 -1 -12 7 -12z" />
    <glyph glyph-name="a" unicode="a" horiz-adv-x="580" 
d="M535 34v424c0 126 -20 260 -245 260s-245 -134 -245 -260v-424c0 -22 11 -34 30 -34h112c20 0 30 10 30 30v87c0 20 11 30 30 30h86c20 0 30 -10 30 -30v-87c0 -20 11 -30 30 -30h112c20 0 30 12 30 34zM363 458v-108c0 -20 -10 -30 -30 -31h-86c-19 0 -30 11 -30 30v109
c0 48 7 72 73 72s73 -24 73 -72z" />
    <glyph glyph-name="aacute" unicode="&#xe1;" horiz-adv-x="580" 
d="M293 832l115 92c22 18 16 37 -13 37h-105c-16 0 -26 -5 -37 -16l-80 -89c-17 -20 -10 -37 17 -37h66c15 0 26 4 37 13zM535 34v424c0 126 -20 260 -245 260s-245 -134 -245 -260v-424c0 -22 11 -34 30 -34h112c20 0 30 10 30 30v87c0 20 11 30 30 30h86
c20 0 30 -10 30 -30v-87c0 -20 11 -30 30 -30h112c20 0 30 12 30 34zM363 458v-108c0 -20 -10 -30 -30 -31h-86c-19 0 -30 11 -30 30v109c0 48 7 72 73 72s73 -24 73 -72z" />
    <glyph glyph-name="acircumflex" unicode="&#xe2;" horiz-adv-x="580" 
d="M313 979l143 -144c15 -14 15 -28 0 -44l-28 -27c-13 -13 -28 -14 -42 0l-89 88c-4 4 -7 5 -12 0l-86 -86c-12 -13 -28 -13 -41 0l-28 27c-15 16 -14 30 0 44l141 142c14 14 26 16 42 0zM535 34v424c0 126 -20 260 -245 260s-245 -134 -245 -260v-424c0 -22 11 -34 30 -34
h112c20 0 30 10 30 30v87c0 20 11 30 30 30h86c20 0 30 -10 30 -30v-87c0 -20 11 -30 30 -30h112c20 0 30 12 30 34zM363 458v-108c0 -20 -10 -30 -30 -31h-86c-19 0 -30 11 -30 30v109c0 48 7 72 73 72s73 -24 73 -72z" />
    <glyph glyph-name="adieresis" unicode="&#xe4;" horiz-adv-x="580" 
d="M188 783c-31 0 -57 26 -57 57s26 57 57 57s57 -26 57 -57s-26 -57 -57 -57zM398 783c-31 0 -57 26 -57 57s26 57 57 57s57 -26 57 -57s-26 -57 -57 -57zM535 34v424c0 126 -20 260 -245 260s-245 -134 -245 -260v-424c0 -22 11 -34 30 -34h112c20 0 30 10 30 30v87
c0 20 11 30 30 30h86c20 0 30 -10 30 -30v-87c0 -20 11 -30 30 -30h112c20 0 30 12 30 34zM363 458v-108c0 -20 -10 -30 -30 -31h-86c-19 0 -30 11 -30 30v109c0 48 7 72 73 72s73 -24 73 -72z" />
    <glyph glyph-name="agrave" unicode="&#xe0;" horiz-adv-x="580" 
d="M296 961h-105c-29 0 -35 -19 -13 -37l115 -92c11 -9 22 -13 37 -13h66c27 0 34 17 17 37l-80 89c-11 11 -21 16 -37 16zM535 34v424c0 126 -20 260 -245 260s-245 -134 -245 -260v-424c0 -22 11 -34 30 -34h112c20 0 30 10 30 30v87c0 20 11 30 30 30h86
c20 0 30 -10 30 -30v-87c0 -20 11 -30 30 -30h112c20 0 30 12 30 34zM363 458v-108c0 -20 -10 -30 -30 -31h-86c-19 0 -30 11 -30 30v109c0 48 7 72 73 72s73 -24 73 -72z" />
    <glyph glyph-name="atilde" unicode="&#xe3;" horiz-adv-x="580" 
d="M155 879l-46 -15c-15 -5 -20 -15 -13 -29c77 -156 265 21 306 -54c5 -9 19 -12 29 -9l46 15c13 5 20 15 13 29c-77 156 -265 -21 -306 54c-4 8 -19 14 -29 9zM535 34v424c0 126 -20 260 -245 260s-245 -134 -245 -260v-424c0 -22 11 -34 30 -34h112c20 0 30 10 30 30v87
c0 20 11 30 30 30h86c20 0 30 -10 30 -30v-87c0 -20 11 -30 30 -30h112c20 0 30 12 30 34zM363 458v-108c0 -20 -10 -30 -30 -31h-86c-19 0 -30 11 -30 30v109c0 48 7 72 73 72s73 -24 73 -72z" />
    <glyph glyph-name="b" unicode="b" horiz-adv-x="586" 
d="M80 700h210c188 0 260 -76 260 -240c0 -34 -10 -100 -51 -145c41 -19 71 -69 71 -131c0 -124 -55 -184 -243 -184h-247c-19 0 -30 11 -30 30v639c0 20 10 30 30 31zM252 392h54c48 0 72 6 72 68s-24 68 -72 68h-54c-19 0 -30 -10 -30 -30v-76c0 -20 11 -30 30 -30z
M251 142h63c48 0 72 5 72 52s-22 54 -70 54h-65c-19 0 -30 -10 -30 -30v-46c0 -20 11 -30 30 -30z" />
    <glyph glyph-name="c" unicode="c" horiz-adv-x="560" 
d="M40 225v250c0 66 14 243 251 243c213 0 246 -143 250 -220c1 -14 -8 -25 -22 -28l-111 -25c-21 -4 -37 10 -40 31c-5 44 -23 70 -77 70c-74 0 -79 -47 -79 -124v-144c0 -77 5 -124 79 -124c55 0 70 26 76 72c3 21 19 34 39 29l113 -25c14 -3 23 -14 22 -29
c-4 -76 -37 -219 -250 -219c-237 0 -251 177 -251 243z" />
    <glyph glyph-name="d" unicode="d" horiz-adv-x="593" 
d="M80 700h223c188 0 250 -76 250 -240v-219c0 -164 -62 -241 -250 -241h-223c-19 0 -30 11 -30 30v639c0 20 10 30 30 31zM252 172h54c48 0 72 8 72 68v220c0 62 -24 68 -72 68h-54c-19 0 -30 -10 -30 -30v-296c0 -19 11 -30 30 -30z" />
    <glyph glyph-name="e" unicode="e" horiz-adv-x="557" 
d="M500 700h-420c-19 0 -30 -10 -30 -30v-640c0 -19 11 -30 30 -30h420c20 0 30 10 30 30v112c0 20 -10 30 -30 30h-242c-19 0 -30 11 -30 30v32c0 20 11 30 30 30h155c20 0 30 11 30 30v112c0 20 -10 30 -30 30h-155c-19 0 -30 11 -30 30v32c0 20 11 30 30 30h242
c20 0 30 11 30 30v112c0 20 -10 30 -30 30z" />
    <glyph glyph-name="eacute" unicode="&#xe9;" horiz-adv-x="557" 
d="M300 832l115 92c22 18 16 37 -13 37h-105c-16 0 -26 -5 -37 -16l-80 -89c-17 -20 -10 -37 17 -37h66c15 0 26 4 37 13zM500 700h-420c-19 0 -30 -10 -30 -30v-640c0 -19 11 -30 30 -30h420c20 0 30 10 30 30v112c0 20 -10 30 -30 30h-242c-19 0 -30 11 -30 30v32
c0 20 11 30 30 30h155c20 0 30 11 30 30v112c0 20 -10 30 -30 30h-155c-19 0 -30 11 -30 30v32c0 20 11 30 30 30h242c20 0 30 11 30 30v112c0 20 -10 30 -30 30z" />
    <glyph glyph-name="ecircumflex" unicode="&#xea;" horiz-adv-x="557" 
d="M320 979l143 -144c15 -14 15 -28 0 -44l-28 -27c-13 -13 -28 -14 -42 0l-89 88c-4 4 -7 5 -12 0l-86 -86c-12 -13 -28 -13 -41 0l-28 27c-15 16 -14 30 0 44l141 142c14 14 26 16 42 0zM500 700h-420c-19 0 -30 -10 -30 -30v-640c0 -19 11 -30 30 -30h420
c20 0 30 10 30 30v112c0 20 -10 30 -30 30h-242c-19 0 -30 11 -30 30v32c0 20 11 30 30 30h155c20 0 30 11 30 30v112c0 20 -10 30 -30 30h-155c-19 0 -30 11 -30 30v32c0 20 11 30 30 30h242c20 0 30 11 30 30v112c0 20 -10 30 -30 30z" />
    <glyph glyph-name="edieresis" unicode="&#xeb;" horiz-adv-x="557" 
d="M195 783c-31 0 -57 26 -57 57s26 57 57 57s57 -26 57 -57s-26 -57 -57 -57zM405 783c-31 0 -57 26 -57 57s26 57 57 57s57 -26 57 -57s-26 -57 -57 -57zM500 700h-420c-19 0 -30 -10 -30 -30v-640c0 -19 11 -30 30 -30h420c20 0 30 10 30 30v112c0 20 -10 30 -30 30h-242
c-19 0 -30 11 -30 30v32c0 20 11 30 30 30h155c20 0 30 11 30 30v112c0 20 -10 30 -30 30h-155c-19 0 -30 11 -30 30v32c0 20 11 30 30 30h242c20 0 30 11 30 30v112c0 20 -10 30 -30 30z" />
    <glyph glyph-name="egrave" unicode="&#xe8;" horiz-adv-x="557" 
d="M303 961h-105c-29 0 -35 -19 -13 -37l115 -92c11 -9 22 -13 37 -13h66c27 0 34 17 17 37l-80 89c-11 11 -21 16 -37 16zM500 700h-420c-19 0 -30 -10 -30 -30v-640c0 -19 11 -30 30 -30h420c20 0 30 10 30 30v112c0 20 -10 30 -30 30h-242c-19 0 -30 11 -30 30v32
c0 20 11 30 30 30h155c20 0 30 11 30 30v112c0 20 -10 30 -30 30h-155c-19 0 -30 11 -30 30v32c0 20 11 30 30 30h242c20 0 30 11 30 30v112c0 20 -10 30 -30 30z" />
    <glyph glyph-name="f" unicode="f" horiz-adv-x="550" 
d="M510 700h-430c-19 0 -30 -10 -30 -30v-640c0 -19 11 -30 30 -30h118c20 0 30 11 30 30v204c0 20 11 30 30 30h165c20 0 30 11 30 30v112c0 20 -10 30 -30 30h-165c-19 0 -30 11 -30 30v32c0 20 11 30 30 30h252c20 0 30 11 30 30v112c0 20 -10 30 -30 30z" />
    <glyph glyph-name="g" unicode="g" horiz-adv-x="580" 
d="M40 225v250c0 66 14 243 251 243c210 0 245 -138 250 -216c1 -18 -8 -29 -26 -33l-113 -25c-20 -4 -31 5 -33 26c-4 48 -21 76 -78 76c-74 0 -79 -47 -79 -124v-144c0 -77 5 -124 79 -124s79 47 79 96h-58c-19 0 -30 11 -30 30v80c0 20 11 30 30 30h200
c20 0 30 -10 30 -30v-135c0 -66 -14 -243 -251 -243s-251 177 -251 243z" />
    <glyph glyph-name="h" unicode="h" 
d="M192 700h-112c-20 0 -30 -10 -30 -30v-640c0 -19 11 -30 30 -30h112c20 0 30 11 30 30v158c0 20 11 30 30 30h96c20 0 30 -10 30 -30v-158c0 -19 11 -30 30 -30h112c20 0 30 11 30 30v640c0 20 -10 30 -30 30h-112c-19 0 -30 -11 -30 -30v-250c0 -19 -10 -30 -30 -30h-96
c-19 0 -30 11 -30 30v250c0 19 -11 30 -30 30z" />
    <glyph glyph-name="i" unicode="i" horiz-adv-x="270" 
d="M190 700h-110c-19 0 -30 -10 -30 -30v-640c0 -19 11 -30 30 -30h110c20 0 30 11 30 30v640c0 20 -10 30 -30 30z" />
    <glyph glyph-name="iacute" unicode="&#xed;" horiz-adv-x="270" 
d="M135 832l115 92c22 18 16 37 -13 37h-105c-16 0 -26 -5 -37 -16l-80 -89c-17 -20 -10 -37 17 -37h66c15 0 26 4 37 13zM190 700h-110c-19 0 -30 -10 -30 -30v-640c0 -19 11 -30 30 -30h110c20 0 30 11 30 30v640c0 20 -10 30 -30 30z" />
    <glyph glyph-name="icircumflex" unicode="&#xee;" horiz-adv-x="270" 
d="M155 979l143 -144c15 -14 15 -28 0 -44l-28 -27c-13 -13 -28 -14 -42 0l-89 88c-4 4 -7 5 -12 0l-86 -86c-12 -13 -28 -13 -41 0l-28 27c-15 16 -14 30 0 44l141 142c14 14 26 16 42 0zM190 700h-110c-19 0 -30 -10 -30 -30v-640c0 -19 11 -30 30 -30h110
c20 0 30 11 30 30v640c0 20 -10 30 -30 30z" />
    <glyph glyph-name="idieresis" unicode="&#xef;" horiz-adv-x="270" 
d="M30 783c-31 0 -57 26 -57 57s26 57 57 57s57 -26 57 -57s-26 -57 -57 -57zM240 783c-31 0 -57 26 -57 57s26 57 57 57s57 -26 57 -57s-26 -57 -57 -57zM190 700h-110c-19 0 -30 -10 -30 -30v-640c0 -19 11 -30 30 -30h110c20 0 30 11 30 30v640c0 20 -10 30 -30 30z" />
    <glyph glyph-name="igrave" unicode="&#xec;" horiz-adv-x="270" 
d="M138 961h-105c-29 0 -35 -19 -13 -37l115 -92c11 -9 22 -13 37 -13h66c27 0 34 17 17 37l-80 89c-11 11 -21 16 -37 16zM190 700h-110c-19 0 -30 -10 -30 -30v-640c0 -19 11 -30 30 -30h110c20 0 30 11 30 30v640c0 20 -10 30 -30 30z" />
    <glyph glyph-name="j" unicode="j" horiz-adv-x="556" 
d="M370 700h110c18 0 31 -13 31 -31v-444c0 -66 -14 -243 -251 -243c-213 0 -246 143 -250 220c-1 14 8 25 22 28l111 25c21 4 37 -10 40 -31c5 -44 23 -70 77 -70c74 0 79 47 79 124v391c0 18 13 31 31 31z" />
    <glyph glyph-name="k" unicode="k" horiz-adv-x="623" 
d="M394 371l218 -335c14 -20 5 -36 -19 -36h-150c-16 0 -27 6 -36 20l-124 190c-4 6 -10 6 -14 0l-41 -56c-3 -4 -4 -8 -4 -13v-111c0 -19 -10 -30 -30 -30h-114c-19 0 -30 11 -30 30v640c0 20 11 30 30 30h114c20 0 30 -10 30 -30v-201c0 -10 7 -12 12 -4l157 216
c9 13 20 19 36 19h148c25 0 33 -16 19 -37l-202 -278c-3 -5 -4 -9 0 -14z" />
    <glyph glyph-name="l" unicode="l" horiz-adv-x="517" 
d="M192 700h-112c-19 0 -30 -10 -30 -30v-640c0 -19 11 -30 30 -30h395c20 0 30 10 30 30v112c0 20 -10 30 -30 30h-223c-19 0 -30 11 -30 30v468c0 20 -10 30 -30 30z" />
    <glyph glyph-name="m" unicode="m" horiz-adv-x="792" 
d="M287 700h-207c-20 0 -30 -10 -30 -30v-640c0 -19 10 -30 30 -30h112c20 0 30 11 30 30v394c0 7 9 8 11 1l97 -399c4 -17 15 -26 33 -26h66c18 0 29 9 33 26l97 399c2 7 11 6 11 -1v-394c0 -19 11 -30 30 -30h112c20 0 30 11 30 30v640c0 20 -10 30 -30 30h-207
c-18 0 -28 -10 -32 -27l-71 -291c-2 -10 -10 -10 -12 0l-71 291c-4 17 -14 27 -32 27z" />
    <glyph glyph-name="n" unicode="n" horiz-adv-x="632" 
d="M227 700h-147c-19 0 -30 -10 -30 -30v-640c0 -19 11 -30 30 -30h112c20 0 30 11 30 30v323c0 10 8 12 12 3l136 -333c7 -16 18 -23 35 -23h147c20 0 30 11 30 30v640c0 20 -10 30 -30 30h-112c-19 0 -30 -10 -30 -30v-323c0 -10 -8 -12 -12 -3l-136 333
c-7 16 -18 23 -35 23z" />
    <glyph glyph-name="ntilde" unicode="&#xf1;" horiz-adv-x="632" 
d="M188 879l-46 -15c-15 -5 -20 -15 -13 -29c77 -156 265 21 306 -54c5 -9 19 -12 29 -9l46 15c13 5 20 15 13 29c-77 156 -265 -21 -306 54c-4 8 -19 14 -29 9zM227 700h-147c-19 0 -30 -10 -30 -30v-640c0 -19 11 -30 30 -30h112c20 0 30 11 30 30v323c0 10 8 12 12 3
l136 -333c7 -16 18 -23 35 -23h147c20 0 30 11 30 30v640c0 20 -10 30 -30 30h-112c-19 0 -30 -10 -30 -30v-323c0 -10 -8 -12 -12 -3l-136 333c-7 16 -18 23 -35 23z" />
    <glyph glyph-name="o" unicode="o" horiz-adv-x="582" 
d="M542 475v-250c0 -66 -14 -243 -251 -243s-251 177 -251 243v250c0 66 14 243 251 243s251 -177 251 -243zM370 278v144c0 77 -5 124 -79 124s-79 -47 -79 -124v-144c0 -77 5 -124 79 -124s79 47 79 124z" />
    <glyph glyph-name="oacute" unicode="&#xf3;" horiz-adv-x="582" 
d="M291 832l115 92c22 18 16 37 -13 37h-105c-16 0 -26 -5 -37 -16l-80 -89c-17 -20 -10 -37 17 -37h66c15 0 26 4 37 13zM542 475v-250c0 -66 -14 -243 -251 -243s-251 177 -251 243v250c0 66 14 243 251 243s251 -177 251 -243zM370 278v144c0 77 -5 124 -79 124
s-79 -47 -79 -124v-144c0 -77 5 -124 79 -124s79 47 79 124z" />
    <glyph glyph-name="ocircumflex" unicode="&#xf4;" horiz-adv-x="582" 
d="M311 979l143 -144c15 -14 15 -28 0 -44l-28 -27c-13 -13 -28 -14 -42 0l-89 88c-4 4 -7 5 -12 0l-86 -86c-12 -13 -28 -13 -41 0l-28 27c-15 16 -14 30 0 44l141 142c14 14 26 16 42 0zM542 475v-250c0 -66 -14 -243 -251 -243s-251 177 -251 243v250
c0 66 14 243 251 243s251 -177 251 -243zM370 278v144c0 77 -5 124 -79 124s-79 -47 -79 -124v-144c0 -77 5 -124 79 -124s79 47 79 124z" />
    <glyph glyph-name="odieresis" unicode="&#xf6;" horiz-adv-x="582" 
d="M186 783c-31 0 -57 26 -57 57s26 57 57 57s57 -26 57 -57s-26 -57 -57 -57zM396 783c-31 0 -57 26 -57 57s26 57 57 57s57 -26 57 -57s-26 -57 -57 -57zM542 475v-250c0 -66 -14 -243 -251 -243s-251 177 -251 243v250c0 66 14 243 251 243s251 -177 251 -243zM370 278
v144c0 77 -5 124 -79 124s-79 -47 -79 -124v-144c0 -77 5 -124 79 -124s79 47 79 124z" />
    <glyph glyph-name="ograve" unicode="&#xf2;" horiz-adv-x="582" 
d="M294 961h-105c-29 0 -35 -19 -13 -37l115 -92c11 -9 22 -13 37 -13h66c27 0 34 17 17 37l-80 89c-11 11 -21 16 -37 16zM542 475v-250c0 -66 -14 -243 -251 -243s-251 177 -251 243v250c0 66 14 243 251 243s251 -177 251 -243zM370 278v144c0 77 -5 124 -79 124
s-79 -47 -79 -124v-144c0 -77 5 -124 79 -124s79 47 79 124z" />
    <glyph glyph-name="oslash" unicode="&#xf8;" horiz-adv-x="602" 
d="M496 729l35 -19c17 -10 21 -24 12 -40l-33 -57c29 -50 32 -107 32 -138v-250c0 -66 -14 -243 -251 -243c-55 0 -98 9 -131 25l-17 -29c-8 -13 -22 -18 -40 -6l-33 20c-18 8 -22 22 -12 38l24 41c-38 54 -42 119 -42 154v250c0 66 14 243 251 243c63 0 110 -12 145 -32
l21 36c7 14 23 18 39 7zM212 422v-125l134 233c-12 10 -29 16 -55 16c-74 0 -79 -47 -79 -124zM370 278v93l-121 -209c11 -5 24 -8 42 -8c74 0 79 47 79 124z" />
    <glyph glyph-name="otilde" unicode="&#xf5;" horiz-adv-x="582" 
d="M153 879l-46 -15c-15 -5 -20 -15 -13 -29c77 -156 265 21 306 -54c5 -9 19 -12 29 -9l46 15c13 5 20 15 13 29c-77 156 -265 -21 -306 54c-4 8 -19 14 -29 9zM542 475v-250c0 -66 -14 -243 -251 -243s-251 177 -251 243v250c0 66 14 243 251 243s251 -177 251 -243z
M370 278v144c0 77 -5 124 -79 124s-79 -47 -79 -124v-144c0 -77 5 -124 79 -124s79 47 79 124z" />
    <glyph glyph-name="p" unicode="p" horiz-adv-x="562" 
d="M80 700h220c178 0 250 -76 250 -240s-72 -240 -250 -240h-48c-19 0 -30 -10 -30 -30v-160c0 -20 -10 -30 -30 -30h-112c-19 0 -30 11 -30 30v639c0 20 10 30 30 31zM252 392h54c48 0 72 6 72 68s-24 68 -72 68h-54c-19 0 -30 -10 -30 -30v-76c0 -19 11 -30 30 -30z" />
    <glyph glyph-name="q" unicode="q" horiz-adv-x="585" 
d="M577 35l-81 -77c-14 -14 -28 -14 -42 0l-38 38c-4 4 -8 5 -14 3c-30 -11 -67 -17 -111 -17c-237 0 -251 177 -251 243v250c0 66 14 243 251 243s251 -177 251 -243v-250c0 -20 -2 -52 -11 -85c-1 -6 0 -10 3 -14l45 -48c13 -14 12 -29 -2 -43zM212 422v-144
c0 -77 5 -124 79 -124s79 47 79 124v144c0 77 -5 124 -79 124s-79 -47 -79 -124z" />
    <glyph glyph-name="r" unicode="r" horiz-adv-x="593" 
d="M471 251l106 -197c14 -26 -2 -54 -33 -54h-114c-10 0 -19 5 -23 14l-104 201c-2 3 -5 5 -8 5h-40c-18 0 -31 -13 -31 -31v-158c0 -18 -13 -31 -31 -31h-112c-18 0 -31 13 -31 31v638c0 18 13 31 31 31h219c178 0 250 -76 250 -240c0 -93 -23 -158 -76 -196
c-4 -3 -5 -8 -3 -13zM306 528h-51c-18 0 -31 -13 -31 -31v-74c0 -18 13 -31 31 -31h51c48 0 72 6 72 68s-24 68 -72 68z" />
    <glyph glyph-name="s" unicode="s" horiz-adv-x="572" 
d="M513 477l-114 -25c-20 -4 -30 5 -33 25c-7 41 -40 67 -87 67c-39 0 -63 -23 -59 -46c14 -78 330 -76 330 -306c0 -30 -34 -207 -271 -207c-210 0 -255 138 -260 216c-1 18 8 29 26 33l113 25c20 4 31 -5 33 -26c4 -48 41 -76 88 -76c49 0 85 29 79 56
c-19 85 -320 66 -320 296c-1 30 17 207 241 207c206 0 254 -134 260 -206c1 -18 -8 -29 -26 -33z" />
    <glyph glyph-name="t" unicode="t" horiz-adv-x="592" 
d="M210 498v-468c0 -19 11 -30 30 -30h112c20 0 30 11 30 30v468c0 20 11 30 30 30h140c20 0 30 11 30 30v112c0 20 -10 30 -30 30h-512c-19 0 -30 -10 -30 -30v-112c0 -19 11 -30 30 -30h140c20 0 30 -10 30 -30z" />
    <glyph glyph-name="u" unicode="u" horiz-adv-x="590" 
d="M74 700h112c20 0 30 -10 30 -30v-392c0 -77 5 -124 79 -124s79 47 79 124v392c0 20 11 30 30 30h112c20 0 30 -10 30 -30v-445c0 -66 -14 -243 -251 -243s-251 177 -251 243v445c0 20 11 30 30 30z" />
    <glyph glyph-name="uacute" unicode="&#xfa;" horiz-adv-x="590" 
d="M295 832l115 92c22 18 16 37 -13 37h-105c-16 0 -26 -5 -37 -16l-80 -89c-17 -20 -10 -37 17 -37h66c15 0 26 4 37 13zM74 700h112c20 0 30 -10 30 -30v-392c0 -77 5 -124 79 -124s79 47 79 124v392c0 20 11 30 30 30h112c20 0 30 -10 30 -30v-445
c0 -66 -14 -243 -251 -243s-251 177 -251 243v445c0 20 11 30 30 30z" />
    <glyph glyph-name="ucircumflex" unicode="&#xfb;" horiz-adv-x="590" 
d="M315 979l143 -144c15 -14 15 -28 0 -44l-28 -27c-13 -13 -28 -14 -42 0l-89 88c-4 4 -7 5 -12 0l-86 -86c-12 -13 -28 -13 -41 0l-28 27c-15 16 -14 30 0 44l141 142c14 14 26 16 42 0zM74 700h112c20 0 30 -10 30 -30v-392c0 -77 5 -124 79 -124s79 47 79 124v392
c0 20 11 30 30 30h112c20 0 30 -10 30 -30v-445c0 -66 -14 -243 -251 -243s-251 177 -251 243v445c0 20 11 30 30 30z" />
    <glyph glyph-name="udieresis" unicode="&#xfc;" horiz-adv-x="590" 
d="M190 783c-31 0 -57 26 -57 57s26 57 57 57s57 -26 57 -57s-26 -57 -57 -57zM400 783c-31 0 -57 26 -57 57s26 57 57 57s57 -26 57 -57s-26 -57 -57 -57zM74 700h112c20 0 30 -10 30 -30v-392c0 -77 5 -124 79 -124s79 47 79 124v392c0 20 11 30 30 30h112
c20 0 30 -10 30 -30v-445c0 -66 -14 -243 -251 -243s-251 177 -251 243v445c0 20 11 30 30 30z" />
    <glyph glyph-name="ugrave" unicode="&#xf9;" horiz-adv-x="590" 
d="M298 961h-105c-29 0 -35 -19 -13 -37l115 -92c11 -9 22 -13 37 -13h66c27 0 34 17 17 37l-80 89c-11 11 -21 16 -37 16zM74 700h112c20 0 30 -10 30 -30v-392c0 -77 5 -124 79 -124s79 47 79 124v392c0 20 11 30 30 30h112c20 0 30 -10 30 -30v-445
c0 -66 -14 -243 -251 -243s-251 177 -251 243v445c0 20 11 30 30 30z" />
    <glyph glyph-name="v" unicode="v" horiz-adv-x="580" 
d="M163 700h-119c-21 0 -31 -12 -26 -33l146 -641c4 -17 15 -26 33 -26h186c18 0 29 9 33 26l146 641c5 21 -5 33 -26 33h-119c-18 0 -29 -9 -33 -26l-88 -384c-2 -9 -10 -9 -12 0l-88 384c-4 17 -15 26 -33 26z" />
    <glyph glyph-name="w" unicode="w" horiz-adv-x="810" 
d="M14 667l123 -641c3 -17 15 -26 33 -26h141c18 0 29 9 33 26l55 246c2 10 10 10 12 0l55 -246c4 -17 15 -26 33 -26h141c18 0 30 9 33 26l123 641c4 21 -6 33 -27 33h-119c-18 0 -31 -9 -33 -26l-57 -417c-2 -10 -10 -10 -12 0l-67 417c-3 17 -15 26 -33 26h-86
c-18 0 -30 -9 -33 -26l-67 -417c-2 -10 -10 -10 -12 0l-57 417c-2 17 -15 26 -33 26h-119c-21 0 -31 -12 -27 -33z" />
    <glyph glyph-name="x" unicode="x" 
d="M402 356l189 -320c12 -21 3 -36 -21 -36h-124c-17 0 -28 6 -36 20l-99 168c-4 7 -9 7 -13 0l-96 -167c-8 -15 -19 -21 -36 -21h-136c-24 0 -33 15 -21 36l192 325c3 5 3 9 0 14l-170 289c-12 21 -3 36 21 36h124c17 0 28 -6 36 -20l81 -139c4 -7 10 -7 14 0l82 139
c8 14 19 20 36 20h125c23 0 32 -15 20 -36l-168 -294c-3 -5 -3 -9 0 -14z" />
    <glyph glyph-name="y" unicode="y" horiz-adv-x="601" 
d="M186 700h-144c-23 0 -33 -14 -23 -35l180 -400c2 -4 2 -8 2 -12v-223c0 -19 11 -30 30 -30h140c20 0 30 11 30 30v223c0 4 0 8 2 12l179 400c10 21 0 35 -23 35h-143c-17 0 -28 -7 -34 -23l-74 -186c-4 -9 -10 -9 -14 0l-74 186c-6 16 -17 23 -34 23z" />
    <glyph glyph-name="z" unicode="z" horiz-adv-x="590" 
d="M313 172h211c20 0 30 -10 30 -30v-112c0 -19 -10 -30 -30 -30h-497c-24 0 -33 15 -21 36l273 480c4 7 1 12 -7 12h-191c-19 0 -30 11 -30 30v112c0 20 11 30 30 30h482c24 0 33 -15 21 -36l-278 -480c-4 -7 -1 -12 7 -12z" />
    <glyph glyph-name="zero" unicode="0" 
d="M551 350c0 -131 -14 -368 -251 -368s-251 237 -251 368c0 135 8 368 251 368c245 0 251 -237 251 -368zM300 546c-74 0 -79 -95 -79 -196s1 -196 79 -196c74 0 79 95 79 196s-1 196 -79 196z" />
    <glyph glyph-name="one" unicode="1" horiz-adv-x="380" 
d="M277 700h-83c-5 0 -9 -1 -13 -3l-128 -77c-14 -8 -20 -19 -20 -36v-54c0 -19 11 -30 30 -30h43c20 0 30 -10 30 -30v-440c0 -19 11 -30 30 -30h111c20 0 30 11 30 30v640c0 20 -10 30 -30 30z" />
    <glyph glyph-name="two" unicode="2" horiz-adv-x="570" 
d="M238 172h252c20 0 30 -10 30 -30v-112c0 -20 -10 -30 -30 -30h-426c-19 0 -30 11 -30 30v86c0 230 294 295 310 374c6 30 -10 56 -49 56c-47 0 -70 -26 -77 -67c-3 -20 -13 -29 -33 -25l-114 25c-18 4 -27 15 -26 33c6 72 44 206 250 206c224 0 232 -177 231 -207
c0 -196 -262 -227 -297 -328c-2 -7 1 -11 9 -11z" />
    <glyph glyph-name="three" unicode="3" horiz-adv-x="590" 
d="M195 454l-114 25c-18 4 -27 15 -26 33c6 72 44 206 250 206c161 0 238 -103 233 -219c-4 -79 -41 -126 -71 -144c-7 -3 -7 -7 0 -10c30 -18 67 -65 71 -144c5 -116 -72 -219 -233 -219c-206 0 -244 134 -250 206c-1 18 8 29 26 33l114 25c20 4 30 -5 33 -25
c7 -41 30 -67 77 -67c40 0 71 39 50 80c-15 28 -50 46 -98 52c-20 2 -30 11 -30 30v68c0 19 10 28 30 30c48 6 83 24 98 52c22 41 -10 80 -50 80c-47 0 -70 -26 -77 -67c-3 -20 -13 -29 -33 -25z" />
    <glyph glyph-name="four" unicode="4" 
d="M576 382v-112c0 -19 -10 -30 -30 -30h-12c-19 0 -30 -10 -30 -30v-180c0 -19 -10 -30 -30 -30h-112c-19 0 -30 11 -30 30v180c0 20 -10 30 -30 30h-253c-19 0 -30 11 -30 30v140c0 1 3 9 6 20l86 171c8 16 16 24 34 24h110c22 0 35 -14 25 -34l-84 -168
c-2 -7 0 -11 8 -11h98c20 0 30 11 30 30v248c0 20 11 30 30 30h112c20 0 30 -10 30 -30v-248c0 -19 11 -30 30 -30h12c20 0 30 -10 30 -30z" />
    <glyph glyph-name="five" unicode="5" horiz-adv-x="590" 
d="M530 670v-112c0 -20 -10 -30 -30 -30h-251c-6 0 -10 -3 -10 -10v-20c0 -19 11 -30 30 -30h31c185 0 249 -149 249 -243c0 -105 -64 -243 -249 -243c-206 0 -244 134 -250 206c-1 18 8 29 26 33l114 25c20 4 30 -5 33 -25c7 -41 30 -67 77 -67c48 0 68 38 63 71
c-8 54 -47 77 -124 77h-142c-19 0 -30 11 -30 30v338c0 19 11 30 30 30h403c20 0 30 -10 30 -30z" />
    <glyph glyph-name="six" unicode="6" horiz-adv-x="550" 
d="M289 700h150c28 0 32 -15 11 -33c-59 -52 -156 -147 -184 -215c-3 -8 2 -12 12 -11c156 15 248 -90 248 -216c0 -131 -84 -243 -251 -243s-251 112 -251 243c0 127 73 346 228 463c12 9 23 12 37 12zM275 282c-44 0 -79 -24 -79 -75s31 -75 79 -75c44 0 79 24 79 75
s-31 75 -79 75z" />
    <glyph glyph-name="seven" unicode="7" horiz-adv-x="570" 
d="M251 0h-139c-22 0 -32 14 -22 35l214 481c3 7 1 12 -7 12h-246c-19 0 -30 11 -30 30v112c0 20 11 30 30 30h502c24 0 29 -15 20 -36l-287 -641c-7 -16 -18 -23 -35 -23z" />
    <glyph glyph-name="eight" unicode="8" 
d="M484 386c45 -38 67 -92 67 -157c0 -129 -84 -245 -251 -245s-251 116 -251 245c0 66 21 121 66 159c-29 38 -43 86 -43 137c0 116 68 193 228 193c152 0 228 -77 228 -193c0 -51 -15 -100 -44 -139zM228 507c0 -44 28 -66 72 -66c40 0 72 22 72 66c0 47 -28 69 -72 69
c-40 0 -72 -22 -72 -69zM300 156c44 0 79 24 79 73c0 51 -31 73 -79 73c-44 0 -79 -22 -79 -73c0 -49 31 -73 79 -73z" />
    <glyph glyph-name="nine" unicode="9" horiz-adv-x="560" 
d="M274 0h-147c-27 0 -34 17 -15 36c56 57 134 151 163 213c3 7 -2 12 -11 12c-156 6 -235 87 -235 214c0 131 84 243 251 243s251 -112 251 -243c0 -126 -105 -317 -221 -458c-10 -12 -21 -17 -36 -17zM280 418c44 0 79 24 79 75s-31 75 -79 75c-44 0 -79 -24 -79 -75
s31 -75 79 -75z" />
    <glyph glyph-name="asterisk" unicode="*" horiz-adv-x="400" 
d="M383 625v-1c2 -12 -5 -30 -26 -33l-77 -19c-7 -2 -9 -8 -4 -14l52 -61c15 -18 10 -39 -5 -46l-33 -23c-11 -8 -29 -4 -41 14l-41 69c-4 6 -10 6 -14 0l-42 -69c-11 -18 -29 -22 -41 -14l-36 26h-1c-11 10 -12 28 0 43l52 61c5 6 3 11 -4 13l-86 22c-16 6 -21 21 -16 33
l14 45c6 13 23 18 41 11l72 -30c8 -3 12 0 12 8l-7 80c0 19 12 33 26 33h46c16 0 25 -15 25 -34l-6 -79c0 -8 4 -11 11 -8l73 30c18 8 36 1 42 -14z" />
    <glyph glyph-name="backslash" unicode="\" 
d="M395 -75l-298 808c-8 21 2 35 24 35h49c18 0 29 -8 35 -24l298 -808c8 -21 -2 -35 -24 -35h-49c-18 0 -29 8 -35 24z" />
    <glyph glyph-name="bullet" unicode="&#x2022;" 
d="M300 249c-55 0 -101 46 -101 101s46 101 101 101s101 -46 101 -101s-46 -101 -101 -101z" />
    <glyph glyph-name="colon" unicode=":" horiz-adv-x="272" 
d="M192 440h-112c-19 0 -30 -10 -30 -30v-112c0 -19 11 -30 30 -30h112c20 0 30 11 30 30v112c0 20 -10 30 -30 30zM192 172h-112c-19 0 -30 -10 -30 -30v-112c0 -19 11 -30 30 -30h112c20 0 30 11 30 30v112c0 20 -10 30 -30 30z" />
    <glyph glyph-name="comma" unicode="," horiz-adv-x="237" 
d="M182 172h-112c-19 0 -30 -10 -30 -30v-112c0 -19 11 -30 30 -30h46c6 0 10 -4 10 -10c-1 -20 -5 -45 -32 -77c-9 -11 -4 -23 9 -22c77 8 109 66 109 139v112c0 20 -10 30 -30 30z" />
    <glyph glyph-name="ellipsis" unicode="&#x2026;" horiz-adv-x="720" 
d="M182 172h-112c-19 0 -30 -10 -30 -30v-112c0 -19 11 -30 30 -30h112c20 0 30 11 30 30v112c0 20 -10 30 -30 30zM430 172h-112c-19 0 -30 -10 -30 -30v-112c0 -19 11 -30 30 -30h112c20 0 30 11 30 30v112c0 20 -10 30 -30 30zM670 172h-112c-19 0 -30 -10 -30 -30v-112
c0 -19 11 -30 30 -30h112c20 0 30 11 30 30v112c0 20 -10 30 -30 30z" />
    <glyph glyph-name="exclam" unicode="!" horiz-adv-x="332" 
d="M242 700h-152c-19 0 -31 -10 -30 -30l20 -420c1 -19 11 -30 30 -30h112c20 0 29 11 30 30l20 420c1 20 -10 30 -30 30zM222 172h-112c-19 0 -30 -10 -30 -30v-112c0 -19 11 -30 30 -30h112c20 0 30 11 30 30v112c0 20 -10 30 -30 30z" />
    <glyph glyph-name="exclamdown" unicode="&#xa1;" horiz-adv-x="332" 
d="M222 329h-112c-19 0 -30 10 -30 30v112c0 19 11 30 30 30h112c20 0 30 -11 30 -30v-112c0 -20 -10 -30 -30 -30zM242 -199h-152c-19 0 -31 10 -30 30l20 420c1 19 11 30 30 30h112c20 0 29 -11 30 -30l20 -420c1 -20 -10 -30 -30 -30z" />
    <glyph glyph-name="numbersign" unicode="#" 
d="M574 400h-104c-6 0 -9 -3 -11 -9l-17 -80c-1 -7 2 -11 9 -11h95c21 0 31 -12 27 -33l-8 -40c-4 -18 -15 -27 -33 -27h-104c-6 0 -10 -3 -11 -9l-35 -164c-4 -18 -15 -27 -33 -27h-39c-21 0 -31 12 -27 33l33 156c2 7 -2 11 -9 11h-79c-6 0 -10 -3 -11 -9l-35 -164
c-4 -18 -15 -27 -33 -27h-39c-21 0 -31 12 -27 33l33 156c2 7 -2 11 -9 11h-94c-22 0 -32 12 -28 33l8 40c4 18 16 27 34 27h104c6 0 9 3 11 9l17 80c1 7 -2 11 -9 11h-95c-21 0 -31 12 -27 33l8 40c4 18 15 27 33 27h104c6 0 10 3 11 9l35 164c4 18 15 27 33 27h39
c21 0 31 -12 27 -33l-33 -156c-2 -7 2 -11 9 -11h79c6 0 10 3 11 9l35 164c4 18 15 27 33 27h39c21 0 31 -12 27 -33l-33 -156c-2 -7 2 -11 9 -11h94c21 0 31 -12 27 -33l-8 -40c-4 -18 -15 -27 -33 -27zM342 309l17 80c1 7 -2 11 -9 11h-80c-6 0 -9 -3 -11 -9l-17 -80
c-1 -7 2 -11 9 -11h80c6 0 9 3 11 9z" />
    <glyph glyph-name="period" unicode="." horiz-adv-x="237" 
d="M182 172h-112c-19 0 -30 -10 -30 -30v-112c0 -19 11 -30 30 -30h112c20 0 30 11 30 30v112c0 20 -10 30 -30 30z" />
    <glyph glyph-name="periodcentered" unicode="&#xb7;" horiz-adv-x="232" 
d="M172 434h-112c-19 0 -30 -10 -30 -30v-112c0 -19 11 -30 30 -30h112c20 0 30 11 30 30v112c0 20 -10 30 -30 30z" />
    <glyph glyph-name="question" unicode="?" 
d="M360 223h-113c-20 0 -32 12 -28 33c24 136 124 122 145 224c6 30 -10 66 -49 66c-47 0 -70 -26 -77 -67c-3 -20 -13 -29 -33 -25l-114 25c-18 4 -27 15 -26 33c6 72 44 206 250 206c224 0 232 -177 231 -207c0 -166 -116 -180 -152 -263c-7 -17 -16 -25 -34 -25zM356 172
h-112c-19 0 -30 -10 -30 -30v-112c0 -19 11 -30 30 -30h112c20 0 30 11 30 30v112c0 20 -10 30 -30 30z" />
    <glyph glyph-name="questiondown" unicode="&#xbf;" 
d="M255 346h112c19 0 30 10 30 30v112c0 19 -11 30 -30 30h-112c-20 0 -30 -11 -30 -30v-112c0 -20 10 -30 30 -30zM251 295h113c20 0 32 -12 28 -33c-24 -136 -124 -122 -145 -224c-6 -30 10 -66 49 -66c47 0 70 26 77 67c3 20 13 29 33 25l114 -25c18 -4 27 -15 26 -33
c-6 -72 -44 -206 -250 -206c-224 0 -232 177 -231 207c0 166 116 180 152 263c7 17 16 25 34 25z" />
    <glyph glyph-name="quotedbl" unicode="&#x22;" horiz-adv-x="392" 
d="M152 750h-92c-19 0 -32 -10 -30 -30l20 -162c3 -19 11 -30 30 -30h52c20 0 27 11 30 30l20 162c2 20 -10 30 -30 30zM332 750h-92c-19 0 -32 -10 -30 -30l20 -162c3 -19 11 -30 30 -30h52c20 0 27 11 30 30l20 162c2 20 -10 30 -30 30z" />
    <glyph glyph-name="quotesingle" unicode="'" horiz-adv-x="212" 
d="M152 750h-92c-19 0 -32 -10 -30 -30l20 -162c3 -19 11 -30 30 -30h52c20 0 27 11 30 30l20 162c2 20 -10 30 -30 30z" />
    <glyph glyph-name="semicolon" unicode=";" horiz-adv-x="252" 
d="M182 440h-112c-19 0 -30 -10 -30 -30v-112c0 -19 11 -30 30 -30h112c20 0 30 11 30 30v112c0 20 -10 30 -30 30zM182 172h-112c-19 0 -30 -10 -30 -30v-112c0 -19 11 -30 30 -30h46c6 0 10 -4 10 -10c-1 -20 -5 -45 -32 -77c-9 -11 -4 -23 9 -22c77 8 109 50 109 139v112
c0 20 -10 30 -30 30z" />
    <glyph glyph-name="slash" unicode="/" 
d="M430 767h49c22 0 32 -14 24 -35l-298 -808c-6 -16 -17 -24 -35 -24h-49c-22 0 -32 14 -24 35l298 808c6 16 17 24 35 24z" />
    <glyph glyph-name="underscore" unicode="_" 
d="M11 -130v40c0 20 11 30 30 30h518c20 0 30 -10 30 -30v-40c0 -19 -10 -30 -30 -30h-518c-19 0 -30 11 -30 30z" />
    <glyph glyph-name="braceleft" unicode="{" horiz-adv-x="265" 
d="M235 -136v65c0 17 -10 26 -25 32c-94 40 5 250 -48 337c-12 20 -13 13 -1 32c55 84 -46 299 49 339c15 6 25 15 25 32v65c0 20 -12 31 -32 28c-233 -30 -81 -369 -159 -418c-14 -9 -24 -14 -24 -32v-58c0 -18 10 -23 24 -32c79 -48 -74 -387 159 -418c20 -3 32 8 32 28z
" />
    <glyph glyph-name="braceright" unicode="}" horiz-adv-x="265" 
d="M30 766v-65c0 -17 10 -26 25 -32c95 -40 -6 -255 49 -339c12 -19 11 -12 -1 -32c-53 -87 46 -297 -48 -337c-15 -6 -25 -15 -25 -32v-65c0 -20 12 -31 32 -28c233 31 80 370 159 418c14 9 24 14 24 32v58c0 18 -10 23 -24 32c-78 49 74 388 -159 418
c-20 3 -32 -8 -32 -28z" />
    <glyph glyph-name="bracketleft" unicode="[" horiz-adv-x="280" 
d="M220 800h-160c-19 0 -30 -10 -30 -30v-940c0 -19 11 -30 30 -30h160c20 0 30 10 30 30v60c0 20 -10 30 -30 30h-60c-19 0 -30 11 -30 30v720c0 20 11 30 30 30h60c20 0 30 11 30 30v40c0 20 -10 30 -30 30z" />
    <glyph glyph-name="bracketright" unicode="]" horiz-adv-x="280" 
d="M250 -170v940c0 20 -11 30 -30 30h-160c-20 0 -30 -10 -30 -30v-40c0 -19 10 -30 30 -30h60c19 0 30 -10 30 -30v-720c0 -19 -11 -30 -30 -30h-60c-20 0 -30 -10 -30 -30v-60c0 -20 10 -30 30 -30h160c19 0 30 11 30 30z" />
    <glyph glyph-name="parenleft" unicode="(" horiz-adv-x="295" 
d="M250 658c10 12 15 22 15 37v56c0 26 -18 35 -37 17c-110 -99 -208 -271 -208 -451c0 -179 98 -345 206 -444c20 -18 39 -8 39 19v52c0 16 -5 26 -15 38c-71 79 -114 208 -115 333c-1 128 42 262 115 343z" />
    <glyph glyph-name="parenright" unicode=")" horiz-adv-x="295" 
d="M45 658c73 -81 116 -215 115 -343c-1 -125 -44 -254 -115 -333c-10 -12 -15 -22 -15 -38v-52c0 -27 19 -37 39 -19c108 99 206 265 206 444c0 180 -98 352 -208 451c-19 18 -37 9 -37 -17v-56c0 -15 5 -25 15 -37z" />
    <glyph glyph-name="emdash" unicode="&#x2014;" horiz-adv-x="918" 
d="M50 279v112c0 20 11 30 30 30h758c20 0 30 -10 30 -30v-112c0 -19 -10 -30 -30 -30h-758c-19 0 -30 11 -30 30z" />
    <glyph glyph-name="endash" unicode="&#x2013;" 
d="M91 279v112c0 20 11 30 30 30h358c20 0 30 -10 30 -30v-112c0 -19 -10 -30 -30 -30h-358c-19 0 -30 11 -30 30z" />
    <glyph glyph-name="hyphen" unicode="-" horiz-adv-x="658" 
d="M70 271v112c0 20 11 30 30 30h458c20 0 30 -10 30 -30v-112c0 -19 -10 -30 -30 -30h-458c-19 0 -30 11 -30 30z" />
    <glyph glyph-name="guillemotleft" unicode="&#xab;" horiz-adv-x="569" 
d="M318 124l-27 -28c-16 -15 -30 -15 -44 0l-197 197c-14 16 -14 28 0 42l197 197c14 14 28 15 44 0l27 -28c13 -13 13 -29 0 -41l-141 -142c-5 -5 -5 -9 0 -12l141 -143c14 -14 13 -29 0 -42zM518 124l-28 -28c-15 -15 -29 -15 -42 0l-198 197c-14 16 -14 28 0 42l198 197
c13 14 27 15 42 0l28 -28c15 -13 15 -29 0 -41l-141 -142c-5 -5 -5 -9 0 -12l141 -143c15 -14 15 -29 0 -42z" />
    <glyph glyph-name="guillemotright" unicode="&#xbb;" horiz-adv-x="569" 
d="M319 293l-198 -197c-13 -15 -27 -15 -42 0l-28 28c-15 13 -15 28 0 42l141 143c5 3 5 7 0 12l-141 142c-15 12 -15 28 0 41l28 28c15 15 29 14 42 0l198 -197c14 -14 14 -26 0 -42zM519 293l-197 -197c-14 -15 -28 -15 -44 0l-27 28c-13 13 -14 28 0 42l141 143
c5 3 5 7 0 12l-141 142c-13 12 -13 28 0 41l27 28c16 15 30 14 44 0l197 -197c14 -14 14 -26 0 -42z" />
    <glyph glyph-name="guilsinglleft" unicode="&#x2039;" horiz-adv-x="369" 
d="M319 124l-27 -28c-16 -15 -30 -15 -44 0l-197 197c-14 16 -14 28 0 42l197 197c14 14 28 15 44 0l27 -28c13 -13 13 -29 0 -41l-141 -142c-5 -5 -5 -9 0 -12l141 -143c14 -14 13 -29 0 -42z" />
    <glyph glyph-name="guilsinglright" unicode="&#x203a;" horiz-adv-x="369" 
d="M318 293l-197 -197c-14 -15 -28 -15 -44 0l-27 28c-13 13 -14 28 0 42l141 143c5 3 5 7 0 12l-141 142c-13 12 -13 28 0 41l27 28c16 15 30 14 44 0l197 -197c14 -14 14 -26 0 -42z" />
    <glyph glyph-name="quotedblbase" unicode="&#x201e;" horiz-adv-x="447" 
d="M182 172h-112c-19 0 -30 -10 -30 -30v-112c0 -19 11 -30 30 -30h46c6 0 10 -4 10 -10c-1 -20 -5 -45 -32 -77c-9 -11 -4 -23 9 -22c77 8 109 66 109 139v112c0 20 -10 30 -30 30zM392 172h-112c-19 0 -30 -10 -30 -30v-112c0 -19 11 -30 30 -30h46c6 0 10 -4 10 -10
c-1 -20 -5 -45 -32 -77c-9 -11 -4 -23 9 -22c77 8 109 66 109 139v112c0 20 -10 30 -30 30z" />
    <glyph glyph-name="quotedblleft" unicode="&#x201c;" horiz-adv-x="432" 
d="M60 417h112c19 0 30 10 30 30v112c0 19 -11 30 -30 30h-46c-6 0 -10 4 -10 10c1 20 5 45 32 77c9 11 4 23 -9 22c-77 -8 -109 -66 -109 -139v-112c0 -20 10 -30 30 -30zM260 417h112c19 0 30 10 30 30v112c0 19 -11 30 -30 30h-46c-6 0 -10 4 -10 10c1 20 5 45 32 77
c9 11 4 23 -9 22c-77 -8 -109 -66 -109 -139v-112c0 -20 10 -30 30 -30z" />
    <glyph glyph-name="quotedblright" unicode="&#x201d;" horiz-adv-x="432" 
d="M172 698h-112c-19 0 -30 -10 -30 -30v-112c0 -19 11 -30 30 -30h46c6 0 10 -4 10 -10c-1 -20 -5 -45 -32 -77c-9 -11 -4 -23 9 -22c77 8 109 66 109 139v112c0 20 -10 30 -30 30zM372 698h-112c-19 0 -30 -10 -30 -30v-112c0 -19 11 -30 30 -30h46c6 0 10 -4 10 -10
c-1 -20 -5 -45 -32 -77c-9 -11 -4 -23 9 -22c77 8 109 66 109 139v112c0 20 -10 30 -30 30z" />
    <glyph glyph-name="quoteleft" unicode="&#x2018;" horiz-adv-x="232" 
d="M60 421h112c19 0 30 10 30 30v112c0 19 -11 30 -30 30h-46c-6 0 -10 4 -10 10c1 20 5 45 32 77c9 11 4 23 -9 22c-77 -8 -109 -66 -109 -139v-112c0 -20 10 -30 30 -30z" />
    <glyph glyph-name="quoteright" unicode="&#x2019;" horiz-adv-x="232" 
d="M172 700h-112c-19 0 -30 -10 -30 -30v-112c0 -19 11 -30 30 -30h46c6 0 10 -4 10 -10c-1 -20 -5 -45 -32 -77c-9 -11 -4 -23 9 -22c77 8 109 66 109 139v112c0 20 -10 30 -30 30z" />
    <glyph glyph-name="quotesinglbase" unicode="&#x201a;" horiz-adv-x="237" 
d="M182 172h-112c-19 0 -30 -10 -30 -30v-112c0 -19 11 -30 30 -30h46c6 0 10 -4 10 -10c-1 -20 -5 -45 -32 -77c-9 -11 -4 -23 9 -22c77 8 109 66 109 139v112c0 20 -10 30 -30 30z" />
    <glyph glyph-name="space" unicode=" " horiz-adv-x="300" 
 />
    <glyph glyph-name="cent" unicode="&#xa2;" horiz-adv-x="473" 
d="M355 327l67 -16c15 -3 22 -13 21 -27c-2 -59 -27 -158 -163 -175v-85c0 -16 -8 -24 -25 -24h-33c-16 0 -25 8 -25 24v84c-162 19 -167 152 -167 242c0 91 10 224 167 243v83c0 15 9 24 25 24h33c17 0 25 -9 25 -24v-84c136 -17 161 -117 163 -175c1 -14 -6 -24 -21 -28
l-67 -16c-16 -3 -24 4 -27 21c-4 44 -13 71 -48 81v-249c35 10 44 37 48 79c3 17 11 25 27 22zM197 225v251c-48 -13 -52 -53 -52 -126c0 -71 3 -112 52 -125z" />
    <glyph glyph-name="dollar" unicode="$" horiz-adv-x="579" 
d="M490 468l-106 -26c-19 -5 -29 4 -32 23c-8 39 -29 64 -73 63c-36 -1 -50 -26 -45 -45c16 -76 292 -53 295 -274c1 -24 -14 -157 -165 -193v-62c0 -20 -10 -30 -30 -30h-112c-19 -1 -30 10 -30 29v66c-113 33 -136 130 -142 191c-1 17 8 28 24 32l106 25
c18 4 28 -3 31 -23c5 -46 20 -73 74 -72c56 1 69 34 64 54c-19 83 -282 44 -286 265c-1 24 2 154 137 192v62c0 20 11 30 30 30h112c20 0 30 -10 30 -30v-64c111 -32 136 -125 141 -181c2 -18 -6 -28 -23 -32z" />
    <glyph glyph-name="asciitilde" unicode="~" 
d="M116 421l-60 -19c-21 -7 -27 -20 -19 -39c104 -208 354 28 408 -71c7 -12 26 -17 39 -12l60 19c19 7 27 20 19 39c-103 208 -353 -28 -408 71c-5 11 -25 19 -39 12z" />
    <glyph glyph-name="divide" unicode="&#xf7;" 
d="M300 449c-50 0 -84 33 -84 84c0 43 34 84 84 84s84 -41 84 -84c0 -51 -34 -84 -84 -84zM41 413h518c20 0 30 -10 30 -30v-112c0 -19 -10 -30 -30 -30h-518c-19 0 -30 11 -30 30v112c0 20 11 30 30 30zM300 39c-50 0 -84 41 -84 84c0 51 34 84 84 84s84 -33 84 -84
c0 -43 -34 -84 -84 -84z" />
    <glyph glyph-name="equal" unicode="=" horiz-adv-x="658" 
d="M70 389v112c0 20 11 30 30 30h458c20 0 30 -10 30 -30v-112c0 -19 -10 -30 -30 -30h-458c-19 0 -30 11 -30 30zM70 138v112c0 20 11 30 30 30h458c20 0 30 -10 30 -30v-112c0 -19 -10 -30 -30 -30h-458c-19 0 -30 11 -30 30z" />
    <glyph glyph-name="minus" unicode="&#x2212;" 
d="M71 269v60c0 20 11 30 30 30h398c20 0 30 -10 30 -30v-60c0 -19 -10 -30 -30 -30h-398c-19 0 -30 11 -30 30z" />
    <glyph glyph-name="multiply" unicode="&#xd7;" 
d="M307 458l115 115c14 14 29 14 43 0l79 -79c13 -14 14 -29 0 -43l-115 -115c-5 -4 -5 -9 0 -14l115 -115c14 -14 14 -29 0 -43l-79 -79c-14 -13 -29 -14 -43 0l-115 115c-5 5 -9 5 -14 0l-115 -115c-14 -13 -29 -13 -43 0l-79 79c-14 14 -13 29 0 43l115 115
c5 5 5 10 0 14l-115 115c-13 14 -13 29 0 43l79 79c14 14 29 13 43 0l115 -115c4 -5 10 -5 14 0z" />
    <glyph glyph-name="notequal" unicode="&#x2260;" horiz-adv-x="658" 
d="M558 360h-143l-39 -79h182c20 0 30 -10 30 -30v-112c0 -19 -10 -30 -30 -30h-268l-45 -91c-6 -12 -17 -18 -35 -18h-49c-22 0 -32 10 -24 26l41 83h-78c-19 0 -30 11 -30 30v112c0 20 11 30 30 30h164l39 79h-203c-19 0 -30 11 -30 30v112c0 20 11 30 30 30h289l46 92
c6 12 17 18 35 18h49c22 0 32 -11 24 -26l-42 -84h57c20 0 30 -10 30 -30v-112c0 -19 -10 -30 -30 -30z" />
    <glyph glyph-name="percent" unicode="%" horiz-adv-x="648" 
d="M546 700h49c22 0 29 -14 17 -35l-470 -641c-10 -16 -22 -24 -40 -24h-49c-22 0 -30 14 -17 35l470 641c9 16 22 24 40 24zM146 448c-55 0 -101 46 -101 101s46 101 101 101s101 -46 101 -101s-46 -101 -101 -101zM502 50c-55 0 -101 46 -101 101s46 101 101 101
s101 -46 101 -101s-46 -101 -101 -101z" />
    <glyph glyph-name="plus" unicode="+" horiz-adv-x="698" 
d="M445 413h163c20 0 30 -10 30 -30v-112c0 -19 -10 -30 -30 -30h-163c-6 0 -10 -3 -10 -10v-163c0 -20 -10 -30 -30 -30h-112c-19 0 -30 10 -30 30v163c0 7 -3 10 -10 10h-163c-19 0 -30 11 -30 30v112c0 20 11 30 30 30h163c7 0 10 4 10 10v163c0 19 11 30 30 30h112
c20 0 30 -11 30 -30v-163c0 -6 4 -10 10 -10z" />
    <glyph glyph-name="ampersand" unicode="&#x26;" horiz-adv-x="642" 
d="M530 287l63 -72c12 -14 12 -29 -2 -42s-31 -28 -46 -40c-5 -5 -5 -10 -1 -14l21 -24c14 -15 12 -30 -3 -42l-67 -52c-15 -12 -30 -10 -42 5l-22 27c-4 5 -9 5 -14 2c-56 -37 -120 -53 -179 -53c-94 0 -163 52 -193 112c-38 80 -17 188 91 270c6 4 7 9 2 14
c-34 42 -70 109 -50 196c18 80 85 156 221 143c122 -12 189 -105 169 -210c-13 -59 -38 -114 -110 -169c-5 -4 -6 -9 -1 -14l63 -72c4 -5 9 -5 14 -1c14 11 31 25 44 38c15 13 29 13 42 -2zM229 539c-5 -24 -1 -37 32 -83c4 -5 9 -6 14 -3c29 19 53 44 58 66
c4 21 -9 57 -44 61c-34 4 -55 -18 -60 -41zM200 154c21 -27 73 -25 114 0c6 4 6 9 2 14c-18 21 -49 58 -67 80c-4 4 -9 5 -13 2c-35 -26 -66 -58 -36 -96z" />
    <glyph glyph-name="at" unicode="@" horiz-adv-x="836" 
d="M518 106l25 -37c12 -18 11 -33 -8 -45c-26 -16 -79 -25 -121 -27c-203 -10 -364 150 -364 353s165 368 368 368s368 -165 368 -368c0 -119 -43 -225 -167 -225c-96 0 -139 69 -153 109c-2 5 -3 5 -4 -1c-10 -32 -66 -49 -120 -33c-55 18 -88 84 -88 150
c0 89 61 155 150 155c24 0 49 -8 49 -21c0 13 11 21 33 21h42c22 0 33 -11 33 -32v-123c0 -87 29 -116 58 -116c31 0 59 29 59 116c0 143 -116 259 -261 259c-143 0 -258 -116 -258 -259s112 -251 254 -240c22 2 44 6 62 11c19 5 33 1 43 -15zM404 298c26 0 49 18 52 52
c4 37 -16 54 -42 54c-25 0 -50 -17 -53 -54c-3 -34 18 -52 43 -52z" />
    <glyph glyph-name="bar" unicode="|" horiz-adv-x="180" 
d="M110 770h-40c-19 0 -30 -10 -30 -30v-880c0 -20 11 -30 30 -30h40c20 0 30 10 30 30v880c0 20 -10 30 -30 30z" />
    <glyph glyph-name="degree" unicode="&#xb0;" horiz-adv-x="288" 
d="M144 508c-73 0 -134 61 -134 134c0 74 61 134 134 134c74 0 134 -60 134 -134c0 -73 -60 -134 -134 -134zM144 595c25 0 47 22 47 47s-22 47 -47 47s-47 -22 -47 -47s22 -47 47 -47z" />
    <glyph glyph-name="asciicircum" unicode="^" 
d="M318 749l197 -197c15 -14 15 -28 0 -44l-28 -27c-13 -13 -28 -14 -42 0l-143 141c-3 5 -7 5 -12 0l-142 -141c-12 -13 -28 -13 -41 0l-28 27c-15 16 -14 30 0 44l197 197c14 14 26 14 42 0z" />
    <glyph glyph-name="acute" unicode="&#xb4;" horiz-adv-x="297" 
d="M149 632l115 92c22 18 16 37 -13 37h-105c-16 0 -26 -5 -37 -16l-80 -89c-17 -20 -10 -37 17 -37h66c15 0 26 4 37 13z" />
    <glyph glyph-name="circumflex" unicode="&#x2c6;" 
d="M318 979l143 -144c15 -14 15 -28 0 -44l-28 -27c-13 -13 -28 -14 -42 0l-89 88c-4 4 -7 5 -12 0l-86 -86c-12 -13 -28 -13 -41 0l-28 27c-15 16 -14 30 0 44l141 142c14 14 26 16 42 0z" />
    <glyph glyph-name="dieresis" unicode="&#xa8;" 
d="M195 583c-31 0 -57 26 -57 57s26 57 57 57s57 -26 57 -57s-26 -57 -57 -57zM405 583c-31 0 -57 26 -57 57s26 57 57 57s57 -26 57 -57s-26 -57 -57 -57z" />
    <glyph glyph-name="grave" unicode="`" horiz-adv-x="297" 
d="M151 761h-105c-29 0 -35 -19 -13 -37l115 -92c11 -9 22 -13 37 -13h66c27 0 34 17 17 37l-80 89c-11 11 -21 16 -37 16z" />
    <glyph glyph-name="tilde" unicode="&#x2dc;" horiz-adv-x="460" 
d="M92 879l-46 -15c-15 -5 -20 -15 -13 -29c77 -156 265 21 306 -54c5 -9 19 -12 29 -9l46 15c13 5 20 15 13 29c-77 156 -265 -21 -306 54c-4 8 -19 14 -29 9z" />
    </font>
</defs>
</svg>
